<svg width="107" height="114" viewBox="0 0 107 114" fill="none" xmlns="http://www.w3.org/2000/svg">
<path d="M7.22773 39.3853C8.71362 35.8088 26.0506 33.8579 31.2517 29.3058C25.3076 4.59482 40.3331 16.0832 48.0934 26.3795C64.1425 -2.4933 65.513 13.0486 64.192 24.4287C71.0443 24.1035 86.2348 24.6238 92.1789 29.3058C98.123 33.9879 94.6556 43.6122 92.1789 47.8391V87.1815C89.6196 92.4922 82.3216 104.479 73.6035 109.942C64.8855 115.404 27.0414 113.518 9.2091 111.892C12.1582 100.839 7.22757 65.3969 7.228 63.7712C-6.07748 53.6863 5.50101 43.5415 7.22773 39.3853Z" fill="#FFFDFD"/>
<path fill-rule="evenodd" clip-rule="evenodd" d="M8.21795 95.8355L7.97342 89.2306C7.93876 88.4255 7.83768 87.6318 7.80591 86.8267C7.69808 83.9881 7.59604 81.1419 7.44778 78.3019C7.37654 77.0431 7.26968 75.7818 7.15704 74.5382C7.01167 72.9419 6.81431 71.3393 6.88844 69.7115C6.91154 69.2034 7.27449 69.2287 7.67305 69.6053C8.06873 69.9807 8.51832 70.7011 8.63481 71.6085C8.84083 73.2187 9.03626 74.8326 9.19607 76.4567C9.33663 78.0846 9.4406 79.7225 9.48874 81.3795C9.54362 83.3612 9.85939 85.3859 10.0375 87.3967C10.232 89.6097 10.3908 91.8303 10.5237 94.056L10.7653 98.1674C10.8962 100.241 10.9617 102.334 11.1234 104.393C11.239 105.996 11.5037 107.558 11.6751 109.155C11.7155 109.507 11.7656 109.849 11.7723 110.207C11.7993 111.53 11.6154 111.956 10.9347 112.239C10.7797 112.304 10.6257 112.387 10.4707 112.424C9.94988 112.548 9.50414 112.022 9.30871 111.09C8.69354 108.333 8.63481 105.421 8.45863 102.466C8.35851 100.265 8.25839 98.0536 8.15826 95.8469L8.21795 95.8355Z" fill="#231F20"/>
<path fill-rule="evenodd" clip-rule="evenodd" d="M28.5901 110.433C31.7748 110.579 34.9604 110.747 38.147 110.821L41.632 110.814C45.7274 110.919 49.8267 111.02 53.9182 110.915C55.731 110.849 57.5535 110.732 59.3441 110.557C60.4926 110.437 61.6431 110.282 62.7791 110.112C63.9045 109.936 65.081 109.805 66.0947 109.525C66.7176 109.364 66.8735 109.829 66.4037 110.599C66.2853 110.792 66.1255 111.005 65.9243 111.227C65.7318 111.412 65.5084 111.596 65.2552 111.776C64.744 112.152 64.1259 112.458 63.454 112.6C61.052 113.153 58.676 113.478 56.2885 113.699C53.899 113.841 51.5086 113.874 49.1085 113.788C46.2386 113.697 43.2619 113.929 40.3324 113.956C37.1121 113.97 33.8908 113.932 30.6715 113.862L24.7286 113.694C21.7288 113.602 18.7193 113.46 15.7359 113.414C13.4177 113.374 11.136 113.516 8.82261 113.392C8.31429 113.344 7.8156 113.321 7.30344 113.242C5.40496 112.928 4.81866 112.549 4.49615 111.761C4.42202 111.58 4.31997 111.397 4.28532 111.227C4.17172 110.657 4.97366 110.356 6.33783 110.268C10.3918 109.808 14.6345 110.038 18.9514 110.088C22.1553 110.174 25.3746 110.262 28.5862 110.349L28.5901 110.433Z" fill="#231F20"/>
<path fill-rule="evenodd" clip-rule="evenodd" d="M72.5557 76.4772L72.6298 84.3182C72.6443 85.2712 72.7261 86.2191 72.7357 87.172C72.7723 90.5339 72.7935 93.8983 72.8715 97.2564C72.91 98.7465 73.0014 100.24 73.115 101.71C73.2643 103.572 73.4385 105.551 73.3692 107.318C73.3634 107.436 73.3317 107.53 73.2806 107.606C73.2556 107.644 73.2258 107.677 73.1921 107.704C73.1536 107.726 73.2075 107.709 73.089 107.76C72.9909 107.805 72.9591 107.819 72.9909 107.805C72.9909 107.805 73.0756 107.768 73.0486 107.778L73.0159 107.784L72.9475 107.792C72.8994 107.793 72.8493 107.786 72.7954 107.77C72.6895 107.739 72.5721 107.672 72.4479 107.561C71.955 107.07 71.4341 106.218 71.3148 105.113C71.0914 103.174 70.9942 101.234 70.9287 99.2849C70.8594 97.3386 70.8401 95.3846 70.8709 93.4181C70.9133 91.0673 70.6938 88.6419 70.6149 86.2469L70.4079 78.3414L70.2962 73.4756C70.2269 71.0199 70.2057 68.5515 70.1008 66.1135C70.0141 64.2203 69.8081 62.3687 69.6733 60.4856C69.6454 60.071 69.5915 59.6641 69.5982 59.2444C69.605 57.6836 69.7908 57.1641 70.3424 56.8557C70.4676 56.7837 70.5889 56.6889 70.7082 56.6497C71.0972 56.5208 71.4861 57.1591 71.6517 58.2536C72.1956 61.5358 72.29 65.0494 72.4344 68.5756C72.5345 71.1968 72.5442 73.837 72.6106 76.4709L72.5557 76.4772Z" fill="#231F20"/>
<path fill-rule="evenodd" clip-rule="evenodd" d="M88.4713 90.0216C89.4176 88.917 90.3746 87.8238 91.3507 86.752C91.707 86.3046 91.5462 86.8203 91.6049 85.6234L91.6319 83.1563L91.5818 79.5556C91.5789 75.3191 91.498 71.0725 91.396 66.8234C91.3527 64.9365 91.2622 63.0432 91.1726 61.1752C91.0523 58.7739 90.8915 56.3649 90.9474 53.951C90.9714 52.4482 92.1046 54.277 92.3241 57.0285C92.6446 61.9146 93.0114 66.8007 93.0163 71.7714C93.0326 74.7402 93.2386 77.8215 93.2983 80.8624C93.3262 82.5345 93.3445 84.2066 93.3388 85.8812L93.3378 86.5965C93.3339 86.9264 93.3474 87.2677 93.3108 87.5786L92.3655 88.6794L90.9522 90.3338C89.7969 91.7026 88.6474 93.0865 87.5085 94.4869C85.7737 96.6051 84.0312 98.7347 82.3099 100.838C80.9736 102.482 79.7153 104.183 78.3618 105.796C78.0614 106.149 77.7861 106.521 77.4684 106.856C76.8917 107.495 76.4748 107.856 76.1148 107.989C75.7692 108.145 75.5015 108.11 75.2262 107.968C75.102 107.905 74.9634 107.866 74.8709 107.79C74.5706 107.555 74.8257 106.667 75.5708 105.643C77.8756 102.76 80.3478 99.8027 82.8365 96.7656C84.6993 94.5083 86.5699 92.2422 88.4366 89.9799L88.4713 90.0216Z" fill="#231F20"/>
<path fill-rule="evenodd" clip-rule="evenodd" d="M86.6156 48.8597C88.1531 47.8739 89.6761 46.835 91.1384 45.7013C91.4051 45.4953 91.6593 45.2678 91.9125 45.0429L92.26 44.7244L92.4699 44.4463C93.0879 43.6425 93.5241 42.4001 93.7715 41.1059C94.0295 39.8041 94.1104 38.4076 94.016 37.0325C93.9322 35.8129 93.6848 34.5945 93.2612 33.5265C92.7298 32.1325 91.9413 31.0026 91.0479 30.018C90.7793 29.6945 90.9526 29.3621 91.4022 29.2698C91.6285 29.2243 91.9279 29.2408 92.2648 29.3495C92.5719 29.5036 92.9214 29.7488 93.2218 30.1217C95.2675 32.9211 95.9434 36.9175 95.4659 40.5372C95.3417 41.6304 95.0923 42.7287 94.7689 43.8118C94.4194 44.8899 93.9371 45.9516 93.0937 46.7592C91.6015 48.0749 90.0727 49.2022 88.5227 50.303C87.5716 50.978 86.606 51.6187 85.6442 52.262C84.1847 53.2327 82.6887 54.125 81.235 55.0703C80.1009 55.7958 79.0342 56.6451 77.9165 57.3959C77.67 57.5602 77.437 57.7459 77.1838 57.8989C76.2404 58.4461 75.8822 58.4335 75.476 57.8635C75.3836 57.7333 75.2777 57.6107 75.2045 57.4692C74.959 56.9927 75.2151 56.3582 75.8534 55.8451C77.7413 54.3019 79.8419 53.081 81.9358 51.7754C83.4906 50.8099 85.0589 49.8481 86.5915 48.8066L86.6156 48.8597Z" fill="#231F20"/>
<path fill-rule="evenodd" clip-rule="evenodd" d="M15.835 35.0694C16.9836 34.7433 18.1263 34.368 19.2642 33.9496C19.6782 33.7916 20.0739 33.5692 20.4898 33.4125C21.9589 32.8501 23.4338 32.2839 24.901 31.7214C25.5546 31.4649 26.1948 31.1476 26.8264 30.8304C27.6332 30.4108 28.4303 29.9356 29.3275 29.8345C29.6048 29.7953 29.6549 30.1214 29.5403 30.5827C29.42 31.025 29.1648 31.7088 28.722 32.0147C27.1133 32.9676 25.5075 33.9269 23.7582 34.4981C22.7137 34.8381 21.7038 35.4726 20.6611 35.9377C19.5155 36.4483 18.3506 36.9007 17.1838 37.3355L15.0206 38.0863C13.9269 38.454 12.815 38.7447 11.7358 39.1277C10.8973 39.4259 10.0934 39.8279 9.25968 40.1072C9.0758 40.1678 8.89962 40.2475 8.71285 40.293C8.01681 40.4636 7.76939 40.3511 7.53352 39.8203C7.48057 39.6989 7.41607 39.5814 7.3766 39.4588C7.24567 39.0455 7.46902 38.5981 7.93883 38.2771C9.33573 37.3166 10.8289 36.5848 12.3798 36.1323C13.5226 35.7582 14.6721 35.3816 15.8187 35.0062L15.835 35.0694Z" fill="#231F20"/>
<path fill-rule="evenodd" clip-rule="evenodd" d="M73.5715 24.6498C74.5564 24.8065 75.5432 24.9645 76.5261 25.12C76.8852 25.1718 77.2462 25.1516 77.6053 25.2097C78.8713 25.422 80.144 25.6356 81.4061 25.8479C81.9683 25.9402 82.5354 25.9705 83.0947 25.9946C83.8129 26.0135 84.5349 25.968 85.2493 26.2991C85.4717 26.3939 85.438 26.7086 85.2445 27.065C85.051 27.4038 84.6957 27.8916 84.2798 27.9561C82.8088 28.0382 81.3378 28.0951 79.8619 27.7463C78.9791 27.5365 78.0549 27.6123 77.149 27.5415L74.1626 27.2572L72.3258 27.0815C71.3987 26.9943 70.4677 26.8704 69.5454 26.8654C68.8282 26.8515 68.1216 26.988 67.413 26.9854C67.2561 26.988 67.103 27.0107 66.9461 26.9981C66.3636 26.9513 66.1827 26.7744 66.0729 26.2081C66.0479 26.0792 66.0132 25.9516 66.0007 25.8252C65.9564 25.4005 66.2038 25.0479 66.6342 24.8874C67.9136 24.3882 69.2518 24.1999 70.5871 24.3149C71.5816 24.3579 72.578 24.4628 73.5715 24.5853V24.6498Z" fill="#231F20"/>
<path fill-rule="evenodd" clip-rule="evenodd" d="M21.6114 66.1762C24.0393 66.2331 26.4798 66.1914 28.9213 66.0878L31.5919 65.8995C34.7361 65.7705 37.888 65.6505 41.038 65.4571C42.4349 65.3737 43.8386 65.246 45.2249 65.126C47.005 64.9718 48.7975 64.791 50.5901 64.8985C51.1485 64.9301 51.0753 65.2334 50.6132 65.562C50.1502 65.8843 49.3001 66.2622 48.2825 66.3709C44.6723 66.7564 41.0573 67.2354 37.3893 67.4414C35.1953 67.5576 32.9243 67.9419 30.6773 68.1036C28.2089 68.2945 25.7328 68.4272 23.2528 68.4828C21.7259 68.5207 20.1962 68.5055 18.6674 68.4739C16.3501 68.4006 14.0194 68.1997 11.7098 67.7561C10.8125 67.564 9.91626 67.4009 9.01997 67.0698C8.12849 66.745 7.20909 66.3646 6.35901 65.5228C6.16358 65.3737 5.99896 65.1234 5.82086 64.9149L5.42903 64.4068C5.0863 63.9506 4.61938 63.5638 4.3556 63.0027C4.07834 62.4352 4.11203 61.8526 4.34982 61.553C4.44706 61.4077 4.57414 61.2661 4.68966 61.2156C4.89568 61.1233 5.08149 61.3066 5.2567 61.3811C5.44347 61.4418 5.53974 61.4052 6.0134 61.7628C6.3465 62.0143 6.79705 62.3745 7.16674 62.937C7.41223 63.2175 7.57396 63.4185 7.86182 63.627C8.38746 64.0327 9.03441 64.3778 9.74778 64.6267C11.162 65.1525 12.7409 65.4609 14.3361 65.6732C16.713 65.9854 19.1612 66.1029 21.6075 66.1181L21.6114 66.1762Z" fill="#231F20"/>
<path fill-rule="evenodd" clip-rule="evenodd" d="M87.4536 52.9349C86.7989 53.3557 86.1173 53.6983 85.4502 54.0559C85.2056 54.1798 84.9794 54.358 84.732 54.4717C83.8665 54.8572 82.9914 55.2477 82.1288 55.6307C81.7428 55.7925 81.3721 55.9972 81.0063 56.2045C80.5374 56.475 80.083 56.7846 79.5709 56.9224C79.2541 57.0197 79.2965 55.8734 79.8038 55.4424C80.7223 54.7511 81.6532 54.1065 82.6785 53.7539C83.2879 53.5264 83.8501 53.0878 84.4258 52.7377C85.0612 52.356 85.6909 51.9642 86.3118 51.5472C86.6921 51.2881 87.0801 51.0403 87.4478 50.7497C88.0129 50.3263 88.578 49.8864 89.0921 49.367C89.5061 48.9904 89.8286 48.4722 90.2118 48.0602C90.2955 47.9666 90.3706 47.8643 90.4602 47.7783C90.7923 47.4649 90.9579 47.4611 91.2265 47.7088C91.2881 47.7657 91.3536 47.8162 91.4075 47.8782C91.5885 48.0854 91.5856 48.433 91.4142 48.7995C91.1629 49.3468 90.8761 49.8776 90.5189 50.3073C90.179 50.7661 89.793 51.1718 89.379 51.5219C88.7667 52.0514 88.1236 52.5279 87.4728 52.9766L87.4536 52.9349Z" fill="#231F20"/>
<path fill-rule="evenodd" clip-rule="evenodd" d="M38.1535 91.0598L38.0014 85.6049C37.987 84.9401 37.909 84.2829 37.9003 83.6181C37.8792 81.2686 37.8792 78.9191 37.8926 76.5632C37.8878 75.513 37.884 74.4665 37.8792 73.4251C37.8984 72.079 37.8185 70.7204 38.2498 69.3289C38.374 68.9017 38.6657 69.1115 38.9439 69.5463C39.2135 69.9861 39.5023 70.5637 39.5379 71.2904C39.5639 72.5454 39.6631 73.8649 39.7266 75.1768C39.7998 76.495 39.7632 77.8322 39.741 79.1858C39.6929 80.8048 39.9172 82.4693 40.0193 84.1186L40.3004 89.5772L40.4785 92.9429C40.5825 94.6403 40.6499 96.3515 40.8087 98.035C40.9213 99.3456 41.2073 100.61 41.3517 101.919C41.3854 102.207 41.4422 102.486 41.4633 102.778C41.5375 103.873 41.3257 104.237 40.7307 104.485C40.6008 104.541 40.4785 104.613 40.363 104.646C40.0077 104.756 39.4859 104.339 39.2934 103.593C38.7302 101.372 38.5405 98.9715 38.3836 96.5348C38.2633 94.725 38.1959 92.8961 38.0977 91.0699L38.1535 91.0598Z" fill="#231F20"/>
<path fill-rule="evenodd" clip-rule="evenodd" d="M44.224 85.2356C41.6285 85.2458 39.0302 85.29 36.4337 85.381C35.4864 85.4151 34.542 85.5301 33.5956 85.5567C30.256 85.659 26.9124 85.7551 23.5766 85.9889C22.0979 86.0989 20.6124 86.272 19.1539 86.4957C17.2891 86.7662 15.3868 87.1984 13.5875 87.3021C13.0464 87.3513 12.9646 86.8673 13.3728 86.2126C13.5778 85.8802 13.9244 85.5048 14.3239 85.2116C14.7273 84.902 15.2318 84.6315 15.7757 84.5494C19.6516 83.8492 23.5102 83.4738 27.4246 83.3955C29.763 83.3575 32.1814 83.0138 34.568 82.871C37.1914 82.7231 39.8186 82.6296 42.4449 82.5525L47.2941 82.4476C49.7433 82.4172 52.203 82.3856 54.6339 82.3553C56.5228 82.3047 58.3789 82.1177 60.2571 82.0494C60.6701 82.033 61.0745 81.9951 61.4923 82.0153C63.0404 82.0709 63.5265 82.2972 63.824 83.0706C63.8914 83.2451 63.9829 83.422 64.0185 83.5964C64.1388 84.1841 63.4948 84.6302 62.377 84.7528C60.7241 84.9197 59.021 85.0726 57.3016 85.0865C55.5764 85.1661 53.83 85.151 52.074 85.1914C49.4689 85.2179 46.8465 85.2293 44.2288 85.3039L44.224 85.2356Z" fill="#231F20"/>
<path fill-rule="evenodd" clip-rule="evenodd" d="M86.2616 70.282L86.2732 75.3097C86.2799 75.9214 86.328 76.5293 86.3242 77.141C86.3078 79.3022 86.2828 81.4634 86.304 83.6234C86.3155 84.5814 86.3444 85.5444 86.3906 86.4923C86.4744 87.712 86.432 88.9392 86.3675 90.1854C86.2972 90.9437 85.4953 89.9958 85.2883 88.6321C84.8532 86.1915 84.7492 83.7081 84.7742 81.1904C84.7983 79.6826 84.6154 78.1332 84.5422 76.5988C84.4642 74.9128 84.4411 73.2193 84.3988 71.5269L84.3323 68.4027C84.289 66.8266 84.2832 65.2392 84.2081 63.672C84.1475 62.4537 83.9963 61.2618 83.9135 60.0372C83.8962 59.7667 83.8567 59.5013 83.877 59.2295C83.9116 58.2083 84.1552 57.8797 84.5903 57.7154C84.6895 57.6763 84.7848 57.6219 84.8763 57.6055C85.0313 57.5751 85.167 57.6687 85.3056 57.8557C85.4414 58.044 85.5954 58.3271 85.6522 58.6722C85.9218 59.7136 85.9767 60.7841 86.0806 61.8837C86.173 62.9794 86.2029 64.1017 86.2289 65.2278C86.2558 66.9063 86.2828 68.5935 86.3088 70.2757L86.2616 70.282Z" fill="#231F20"/>
<path fill-rule="evenodd" clip-rule="evenodd" d="M82.3323 75.7059C83.0457 75.1093 83.7542 74.4736 84.4358 73.7747C84.6861 73.5245 84.9056 73.2275 85.154 72.9684C86.0349 72.0521 86.9216 71.1294 87.8005 70.2157C88.1885 69.7999 88.562 69.3524 88.9269 68.9076C89.3977 68.3376 89.8608 67.741 90.4288 67.3138C90.7724 67.0358 90.8793 68.2504 90.4037 68.9531C89.5238 70.179 88.6564 71.4378 87.6272 72.521C86.9938 73.1453 86.447 73.9567 85.8404 74.6632C85.1675 75.4329 84.4724 76.1773 83.7494 76.8813C83.3075 77.3186 82.8493 77.7306 82.3862 78.135C81.6882 78.7569 80.9364 79.2763 80.2076 79.8337C79.629 80.2394 79.0879 80.7386 78.4785 81.1165C78.3476 81.2087 78.2225 81.3187 78.0713 81.3427C77.8017 81.4274 77.6102 81.4122 77.459 81.2947C77.3108 81.1961 77.2126 81.0508 77.1201 80.8422C77.0787 80.7474 77.0296 80.6602 77.0008 80.5718C76.9055 80.2874 77.0566 79.888 77.3319 79.4596C78.2071 78.5433 79.1871 78.106 80.1546 77.3628C80.8767 76.8509 81.6064 76.2986 82.3073 75.6654L82.3323 75.7059Z" fill="#231F20"/>
<path fill-rule="evenodd" clip-rule="evenodd" d="M1.00693 49.8937C1.11379 48.4807 1.40549 47.0601 1.85412 45.6913C2.29793 44.3251 3.00457 42.998 3.97017 42.0046C4.10014 41.8745 4.18004 41.7582 4.35237 41.6192C4.55551 41.4725 4.76923 41.3386 4.98488 41.2261C5.32857 41.0858 5.60679 41.0176 5.90812 40.9367C6.44725 40.8381 6.9777 40.7597 7.47735 40.7307C8.49206 40.6447 9.47307 40.6397 10.455 40.6359C14.3675 40.6725 18.2232 40.9379 22.0837 41.1856C24.8977 41.3563 27.7098 41.5256 30.52 41.695C40.4187 42.3914 50.3202 43.1573 60.1958 42.8969C62.385 42.8312 64.5781 42.6896 66.7471 42.4002C67.292 42.3421 67.8292 42.2473 68.3683 42.1588C68.6254 42.1108 68.9353 42.0805 69.1481 42.016C69.2348 41.9692 69.2973 41.9617 69.409 41.9023L69.7566 41.7026C70.7029 41.1313 71.6714 40.4362 72.6235 39.76C77.5286 36.2275 82.4288 32.4422 87.8123 29.9524C89.5173 29.232 89.4037 29.8981 88.1839 31.1063C86.9661 32.3323 84.7162 34.29 81.8897 36.2705C79.376 38.0108 76.8941 39.8447 74.3641 41.6343C73.0789 42.5329 71.8755 43.4341 70.415 44.2796C70.1715 44.4704 69.2598 44.7877 69.0441 44.7674L67.9505 44.9381C67.2208 45.0518 66.4949 45.1163 65.767 45.206C59.9532 45.7697 54.174 45.6433 48.3823 45.3627C41.4594 45.0025 34.2621 44.732 27.2015 44.2935C23.3208 44.0534 19.4411 43.8031 15.569 43.6312C13.6349 43.5529 11.6998 43.4909 9.7821 43.52C8.82323 43.5288 7.87111 43.5819 6.95171 43.6906L6.28358 43.8031C6.09489 43.8612 5.87154 43.9169 5.72521 43.9763C5.67996 44.0041 5.64434 44.0407 5.58176 44.0319C5.52592 44.1102 5.43447 44.2025 5.36226 44.2859C5.21304 44.4641 5.03686 44.6006 4.91556 44.8243C3.5331 46.7972 3.07581 49.9114 3.20674 52.8195C3.27798 54.2906 3.49363 55.7593 3.85561 57.1445C3.93937 57.4958 4.03853 57.837 4.1579 58.1657C4.26669 58.5018 4.37836 58.8342 4.51988 59.1401C4.65081 59.4573 4.78174 59.7746 4.94541 60.0539L5.17742 60.4899C5.25444 60.6302 5.32857 60.682 5.39885 60.7882C5.88117 61.3645 6.71296 61.7664 7.51779 62.0723C8.33899 62.3819 9.21217 62.5803 10.0854 62.756C11.8394 63.0935 13.6339 63.2641 15.4284 63.3766C19.0213 63.5952 22.6315 63.5636 26.2176 63.4499C31.7947 63.2717 37.259 62.708 42.786 62.3756C44.0038 62.2998 45.1947 62.1999 46.4251 62.1544C50.9864 61.9863 52.4527 62.2429 53.425 63.0909C53.6464 63.2856 53.9381 63.4789 54.0652 63.671C54.4907 64.3308 52.6442 64.8085 49.3354 65.0701C39.507 65.8929 29.1173 66.8016 18.5496 66.607C16.5856 66.559 14.614 66.4617 12.6231 66.243C10.6283 66.0041 8.63165 65.7147 6.53389 64.9071L5.73387 64.5431C5.46142 64.3952 5.18223 64.2158 4.90882 64.0477C4.62963 63.8543 4.33408 63.5813 4.05585 63.3361C3.9076 63.1642 3.76126 62.9797 3.61974 62.7927C3.47148 62.5993 3.33959 62.4072 3.27509 62.2656C2.55209 61.0359 2.08998 59.6911 1.70778 58.3375C0.977082 55.6152 0.726775 52.7664 0.9482 49.9L1.00693 49.8937Z" fill="#231F20"/>
<path fill-rule="evenodd" clip-rule="evenodd" d="M92.9159 75.5567C92.9159 75.5567 104.307 75.4506 106.246 82.3361C108.58 90.6308 91.5536 103.079 76.2859 106.53L92.5943 87.1223L92.9159 75.5567Z" fill="#231F20"/>
<path fill-rule="evenodd" clip-rule="evenodd" d="M36.3185 2.1725C36.5159 1.33582 37.1927 0.866931 37.831 1.12602C40.9906 2.41011 35.2904 6.5303 36.3185 2.1725Z" stroke="#231F20"/>
<path fill-rule="evenodd" clip-rule="evenodd" d="M13.2265 26.9708C13.4238 26.1342 14.1016 25.6653 14.7389 25.9244C17.8995 27.2084 12.1983 31.3286 13.2265 26.9708Z" stroke="#231F20"/>
<path fill-rule="evenodd" clip-rule="evenodd" d="M77.7555 17.9191C77.9529 17.0824 78.6297 16.6135 79.268 16.8726C82.4286 18.1567 76.7274 22.2769 77.7555 17.9191Z" stroke="#231F20"/>
<path fill-rule="evenodd" clip-rule="evenodd" d="M29.6157 25.6803C29.094 23.9274 28.7609 22.0872 28.7406 20.113C28.732 18.1844 29.0737 15.9006 30.28 14.2095C31.158 12.9912 32.1265 12.1937 33.302 11.8158C34.3244 11.5074 35.369 11.5782 36.3018 11.8739C37.2405 12.1696 38.0886 12.6651 38.8588 13.2528C40.3905 14.4484 41.6728 15.9473 42.8108 17.5689C43.8264 19.0008 44.7805 20.496 45.6556 22.0531C46.7608 24.0474 47.9016 26.172 48.2145 28.8033C48.3031 29.6375 47.5849 29.6956 46.8032 29.3733C46.0137 29.0435 45.1415 28.4368 44.7112 27.3486C43.1342 23.4724 40.9768 19.6884 38.3948 16.8687C37.6179 16.0307 36.7004 15.443 35.7935 15.1928C34.8818 14.9527 34.025 15.0816 33.2596 15.5707C32.3508 16.123 31.8348 16.9395 31.5518 18.2021C31.3044 19.4596 31.3631 20.9623 31.6288 22.4133C31.9426 24.2294 32.5751 25.9129 33.4541 27.4068C34.774 29.6855 36.6051 31.5522 38.5998 32.9172C40.1565 33.9852 41.8355 34.6222 43.5155 35.2086C43.888 35.3249 44.2548 35.4412 44.6303 35.5587C46.0108 36.0516 46.4055 36.4118 46.5278 37.4444C46.5557 37.6782 46.6068 37.9196 46.6068 38.1446C46.6096 38.9004 45.904 39.3124 44.7901 39.1177C41.4995 38.5351 38.0906 36.9338 35.0339 34.1798C32.7706 32.1677 30.7248 29.2975 29.5551 25.7195L29.6157 25.6803Z" fill="#221F1F"/>
<path fill-rule="evenodd" clip-rule="evenodd" d="M63.1869 17.9115C63.6586 16.2167 63.9686 14.3512 63.8338 12.9521C63.7684 12.2393 63.598 11.8576 63.4045 11.6453C63.21 11.4127 62.7315 11.2687 62.1433 11.3167C61.712 11.3685 61.2326 11.4936 60.7888 11.7338L60.11 12.0421L59.439 12.4668C57.8428 13.4577 56.34 14.9945 54.9739 16.726C53.605 18.4651 52.3544 20.4254 51.253 22.5272C50.2749 24.3901 49.4229 26.3946 48.7423 28.4547C47.8498 31.1025 47.2597 33.8653 46.4982 36.5181C46.2546 37.3422 45.5797 37.0818 45.0531 36.1124C44.5102 35.1443 44.1674 33.4052 44.6132 31.6801C46.219 25.6401 48.7423 20.1334 52.2081 15.605C53.2651 14.2792 54.3116 12.8953 55.5179 11.6668C56.6847 10.4004 58.0373 9.30083 59.542 8.58169C60.3825 8.19748 61.2229 7.89668 62.1866 7.85497C63.1128 7.80062 64.295 8.03317 65.197 9.09608C66.1001 10.1527 66.4062 11.5985 66.4938 12.7941C66.5776 14.0214 66.4832 15.1652 66.3186 16.2571C65.8969 18.9441 65.0969 21.3859 64.0745 23.6773C63.2832 25.3772 62.3821 26.9949 61.3452 28.461C60.3161 29.9334 59.1454 31.2137 57.9449 32.3752C56.0772 34.1787 54.1816 35.7737 52.3294 37.3434C51.9269 37.6935 51.5322 38.0386 51.1269 38.3924C49.6087 39.6449 49.0629 39.8674 48.3293 39.3517C48.1637 39.2354 47.9721 39.1406 47.8354 38.9978C47.3733 38.5277 47.7353 37.4471 48.8202 36.3083C52.0511 32.9085 55.8539 30.6374 58.5437 27.1643C59.5565 25.8815 60.4508 24.4419 61.2364 22.8659C62.0422 21.3138 62.6632 19.6418 63.1214 17.8888L63.1869 17.9115Z" fill="#221F1F"/>
</svg>
