<svg width="104" height="115" viewBox="0 0 104 115" fill="none" xmlns="http://www.w3.org/2000/svg">
<path d="M15.0122 16.753L16.8232 11.9234C62.4011 -10.1108 87.1516 14.3382 87.1516 14.0364C84.7368 49.0497 62.4008 59.3122 61.7971 59.3122C84.7368 72.2913 89.2644 102.777 89.5663 102.777C50.629 126.32 16.8232 103.079 16.8232 102.777C12.2958 77.1207 41.8757 59.0104 41.8757 59.3122C24.2483 52.7925 16.622 28.2229 15.0122 16.753Z" fill="white"/>
<path fill-rule="evenodd" clip-rule="evenodd" d="M53.5481 24.6387C50.8041 24.6767 48.0581 24.6497 45.3291 24.3747C44.3341 24.2717 43.3321 24.2427 42.3461 24.0687C38.8451 23.6387 35.4241 22.7417 32.0621 21.7387C30.5891 21.2237 29.0751 20.8067 27.6481 20.2047C26.7281 19.8297 25.7751 19.5267 24.8761 19.0957C23.9701 18.6807 23.0881 18.2147 22.2131 17.7477C21.6681 17.4517 21.8191 17.3447 22.3701 17.4087C22.9181 17.4797 23.8771 17.6847 24.9081 18.1427C28.5821 19.7307 32.3671 21.0387 36.2831 22.0487C37.4591 22.3227 38.6721 22.5547 39.8901 22.7917C41.1201 22.9547 42.3561 23.1197 43.5831 23.2827C46.2891 23.5417 49.0111 23.7367 51.7361 23.6757C53.4151 23.6877 55.0891 23.5557 56.7631 23.4517C59.2891 23.1917 61.8331 22.9017 64.2981 22.3527C65.2591 22.1597 66.2021 21.9287 67.1321 21.6547C68.0671 21.4057 68.9891 21.1247 69.9071 20.8167C70.3121 20.6837 70.7101 20.5547 71.1171 20.4217C72.6161 19.8897 73.1451 19.8767 73.5631 20.0357C73.6581 20.0717 73.7771 20.0967 73.8391 20.1387C74.0441 20.2567 73.5041 20.6977 72.4071 21.1537C69.1271 22.4267 65.4931 23.2657 61.8191 23.8487C59.0941 24.3207 56.3171 24.5107 53.5531 24.6637L53.5481 24.6387Z" fill="#231F20"/>
<path fill-rule="evenodd" clip-rule="evenodd" d="M59.4486 111.359C61.4386 111.225 63.4246 111.026 65.3996 110.746L67.5546 110.397C70.0896 109.993 72.6056 109.464 75.0806 108.776C76.1796 108.476 77.2676 108.111 78.3296 107.724C79.6936 107.226 81.0506 106.694 82.3806 106.113C82.7966 105.934 82.7766 106.022 82.4706 106.273C82.1686 106.527 81.5756 106.944 80.8156 107.325C78.1066 108.635 75.2146 109.499 72.2786 110.186C70.5136 110.566 68.6886 111.013 66.8686 111.322C64.8666 111.654 62.8526 111.916 60.8346 112.1C59.5916 112.211 58.3476 112.322 57.1016 112.374C55.2176 112.505 53.3196 112.504 51.4466 112.546C49.9906 112.522 48.5606 112.624 47.1206 112.567C46.8036 112.559 46.4906 112.551 46.1736 112.543C44.9896 112.454 44.6166 112.366 44.3736 112.178C44.3186 112.135 44.2446 112.093 44.2136 112.053C44.1076 111.921 44.5956 111.823 45.4626 111.772C48.0286 111.664 50.7176 111.724 53.4186 111.615C55.4246 111.579 57.4386 111.49 59.4446 111.338L59.4486 111.359Z" fill="#231F20"/>
<path fill-rule="evenodd" clip-rule="evenodd" d="M77.0409 97.3657C77.9629 97.5637 78.8819 97.7787 79.7979 98.0067C80.1319 98.0887 80.4719 98.1497 80.8049 98.2417C81.9759 98.5707 83.1389 98.9447 84.2709 99.4247C84.7699 99.6497 85.2769 99.8607 85.7579 100.151C86.0649 100.331 86.3799 100.542 86.6349 100.851C86.8949 101.148 87.0179 101.691 86.8099 102.063C86.6899 102.303 86.5979 102.169 86.5029 101.966C86.4459 101.737 86.2109 101.591 86.0439 101.439C85.7289 101.097 85.1169 100.768 84.5289 100.51C83.9189 100.256 83.3009 99.9987 82.6549 99.7297C81.8889 99.4187 81.0409 99.2407 80.2159 99.0347C79.3089 98.8067 78.3949 98.5927 77.4769 98.3977L75.7749 98.0577C74.9129 97.8997 74.0459 97.7397 73.1829 97.6307C72.5119 97.5447 71.8459 97.5207 71.1779 97.4757C71.0319 97.4677 70.8819 97.4587 70.7379 97.4507C70.1899 97.3987 70.0239 97.3167 69.9349 97.0587C69.9139 97.0007 69.8849 96.9407 69.8759 96.8837C69.8469 96.6897 70.0869 96.5597 70.4959 96.5507C71.7099 96.5267 72.9759 96.6547 74.2369 96.8457C75.1739 96.9877 76.1099 97.1627 77.0439 97.3427L77.0409 97.3657Z" fill="#231F20"/>
<path fill-rule="evenodd" clip-rule="evenodd" d="M34.4776 97.3776C34.9336 97.2426 35.3916 97.1066 35.8426 96.9726C36.0086 96.9226 36.1716 96.8586 36.3406 96.8166C36.9376 96.6706 37.5406 96.5336 38.1566 96.4736C38.4346 96.4376 38.6936 96.4036 38.9686 96.3676C39.3146 96.3296 39.6656 96.2896 40.0156 96.3486C40.2296 96.3756 39.9506 96.7816 39.5816 96.8336C38.9116 96.9186 38.2616 97.0766 37.5776 97.1716C37.1656 97.2216 36.7616 97.3786 36.3546 97.5006C35.9106 97.6426 35.4596 97.7856 35.0126 97.9286C34.7366 98.0236 34.4596 98.1176 34.1866 98.2106C33.7676 98.3596 33.3516 98.5066 32.9366 98.6536C32.6156 98.7716 32.3116 98.9226 31.9936 99.0486C31.9236 99.0776 31.8576 99.1106 31.7846 99.1326C31.5156 99.2176 31.4166 99.1986 31.3126 99.0486C31.2896 99.0146 31.2616 98.9816 31.2446 98.9466C31.1836 98.8266 31.2616 98.6876 31.4396 98.5886C31.9696 98.2996 32.5386 98.0506 33.1276 97.8216C33.5726 97.6696 34.0226 97.5146 34.4716 97.3616L34.4776 97.3776Z" fill="#231F20"/>
<path fill-rule="evenodd" clip-rule="evenodd" d="M70.9006 99.5176C70.9006 99.5176 73.9306 99.8816 75.0616 100.838C76.4056 101.974 66.5476 106.632 57.9116 105.868L71.1406 101.752L70.9006 99.5176Z" fill="#231F20"/>
<path fill-rule="evenodd" clip-rule="evenodd" d="M54.0006 58.2999C53.7786 58.4489 53.5856 58.6329 53.4556 58.8709C53.3226 59.1129 53.2616 59.3559 53.2406 59.6309C53.2296 59.7669 53.2526 59.9039 53.2736 60.0379C53.2856 60.1109 53.3036 60.1799 53.3306 60.2479C53.4306 60.4999 53.5606 60.7379 53.7746 60.9119C54.2116 61.2679 54.7886 61.4879 55.3266 61.2149C55.4156 61.1699 55.4976 61.1039 55.5666 61.0319C55.6906 60.9019 55.7536 60.7769 55.8146 60.6089C55.8516 60.5079 55.8606 60.3949 55.8686 60.2899C55.8756 60.2069 55.8626 60.1289 55.8516 60.0469C55.7846 59.5459 55.4886 59.1329 55.0736 58.8529C54.9176 58.7479 54.6716 58.7289 54.4956 58.7769C54.3216 58.8249 54.1326 58.9599 54.0476 59.1219C53.9556 59.2959 53.9096 59.5069 53.9716 59.6999C54.0336 59.8919 54.1476 60.0339 54.3166 60.1479C54.3346 60.1599 54.3526 60.1729 54.3696 60.1859C54.3186 60.1469 54.2686 60.1079 54.2176 60.0689C54.2846 60.1199 54.3436 60.1789 54.3956 60.2449C54.3566 60.1939 54.3176 60.1439 54.2786 60.0929C54.3296 60.1589 54.3716 60.2309 54.4056 60.3069C54.3806 60.2469 54.3546 60.1879 54.3296 60.1279C54.3596 60.1979 54.3806 60.2709 54.3916 60.3459C54.3826 60.2789 54.3736 60.2129 54.3646 60.1469C54.3726 60.2019 54.3736 60.2569 54.3666 60.3119C54.3756 60.2449 54.3836 60.1789 54.3936 60.1119C54.3876 60.1479 54.3796 60.1819 54.3666 60.2149C54.3916 60.1549 54.4166 60.0949 54.4416 60.0359C54.4306 60.0629 54.4156 60.0889 54.3976 60.1119C54.4366 60.0619 54.4766 60.0109 54.5156 59.9609C54.5006 59.9779 54.4856 59.9929 54.4676 60.0069C54.5186 59.9679 54.5686 59.9289 54.6196 59.8899C54.6006 59.9039 54.5816 59.9139 54.5606 59.9239C54.6206 59.8989 54.6796 59.8729 54.7396 59.8479C54.7166 59.8569 54.6926 59.8629 54.6686 59.8669C54.7346 59.8579 54.8016 59.8489 54.8686 59.8399C54.8316 59.8449 54.7956 59.8439 54.7596 59.8409C54.8266 59.8489 54.8926 59.8589 54.9586 59.8669C54.8926 59.8579 54.8296 59.8389 54.7686 59.8129C54.8276 59.8379 54.8876 59.8629 54.9476 59.8879C54.8566 59.8489 54.7696 59.7999 54.6906 59.7399C54.7416 59.7789 54.7926 59.8189 54.8426 59.8579C54.7896 59.8159 54.7416 59.7689 54.6996 59.7159C54.7386 59.7669 54.7776 59.8169 54.8166 59.8679C54.7696 59.8069 54.7316 59.7409 54.7016 59.6699C54.7266 59.7299 54.7516 59.7889 54.7766 59.8489C54.7496 59.7789 54.7296 59.7059 54.7186 59.6309C54.7286 59.6969 54.7366 59.7639 54.7456 59.8299C54.7346 59.7429 54.7356 59.6559 54.7466 59.5699C54.7376 59.6359 54.7296 59.7029 54.7206 59.7689C54.7326 59.6879 54.7536 59.6109 54.7846 59.5349C54.7596 59.5939 54.7336 59.6539 54.7086 59.7139C54.7386 59.6439 54.7756 59.5789 54.8216 59.5179C54.7826 59.5689 54.7436 59.6189 54.7046 59.6699C54.7476 59.6139 54.7966 59.5639 54.8516 59.5199C54.8006 59.5589 54.7506 59.5979 54.6996 59.6369C54.7186 59.6229 54.7376 59.6089 54.7576 59.5949C54.9206 59.4859 55.0486 59.3409 55.1026 59.1469C55.1516 58.9669 55.1296 58.7289 55.0266 58.5689C54.9236 58.4089 54.7696 58.2679 54.5786 58.2239C54.3886 58.1809 54.1676 58.1879 54.0006 58.2999Z" fill="#231F20"/>
<path fill-rule="evenodd" clip-rule="evenodd" d="M59.0996 67.332C59.1146 67.325 59.1286 67.318 59.1436 67.312C59.0836 67.337 59.0236 67.362 58.9646 67.388C59.0336 67.358 59.1046 67.338 59.1796 67.327C59.1136 67.335 59.0466 67.345 58.9806 67.353C59.0496 67.345 59.1176 67.344 59.1856 67.353C59.1196 67.344 59.0536 67.335 58.9866 67.326C59.0576 67.336 59.1256 67.356 59.1916 67.383C59.1326 67.358 59.0726 67.332 59.0126 67.308C59.0916 67.341 59.1646 67.386 59.2326 67.437C59.1826 67.398 59.1316 67.359 59.0806 67.32C59.1646 67.386 59.2386 67.462 59.3046 67.546C59.2656 67.495 59.2256 67.445 59.1866 67.394C59.2636 67.493 59.3266 67.6 59.3756 67.714C59.3506 67.655 59.3256 67.595 59.3006 67.536C59.3436 67.639 59.3756 67.747 59.3916 67.857C59.3816 67.791 59.3726 67.725 59.3646 67.658C59.3726 67.731 59.3746 67.804 59.3656 67.876C59.3736 67.81 59.3826 67.744 59.3916 67.677C59.3856 67.722 59.3736 67.766 59.3566 67.808C59.3826 67.748 59.4076 67.688 59.4326 67.629C59.4186 67.663 59.4006 67.694 59.3796 67.723C59.4186 67.672 59.4576 67.622 59.4966 67.571C59.4756 67.598 59.4536 67.621 59.4276 67.641C59.4776 67.602 59.5286 67.563 59.5796 67.524C59.5516 67.545 59.5216 67.561 59.4906 67.576C59.5496 67.55 59.6096 67.525 59.6696 67.5C59.6256 67.518 59.5806 67.529 59.5346 67.535C59.6006 67.526 59.6676 67.517 59.7336 67.508C59.7116 67.511 59.6906 67.513 59.6686 67.513C59.4716 67.52 59.2796 67.592 59.1386 67.733C59.0076 67.863 58.9106 68.077 58.9186 68.263C58.9276 68.457 58.9906 68.659 59.1386 68.793C59.2816 68.925 59.4686 69.021 59.6686 69.013C60.0876 68.998 60.4966 68.811 60.7066 68.431C60.8876 68.103 60.8976 67.744 60.8256 67.386C60.7736 67.129 60.6546 66.87 60.4986 66.659C60.4006 66.524 60.2986 66.388 60.1686 66.281C59.9756 66.123 59.8216 66.028 59.5906 65.936C59.4266 65.872 59.2406 65.842 59.0636 65.847C58.7976 65.854 58.5806 65.923 58.3426 66.037C58.1816 66.114 58.0436 66.318 57.9976 66.485C57.9486 66.665 57.9706 66.904 58.0736 67.063C58.1766 67.223 58.3306 67.364 58.5216 67.408C58.5876 67.416 58.6546 67.425 58.7216 67.435C58.8566 67.434 58.9826 67.4 59.0996 67.332Z" fill="#231F20"/>
<path fill-rule="evenodd" clip-rule="evenodd" d="M53.8044 73.3726C53.8074 73.3706 53.8104 73.3686 53.8134 73.3656C53.7624 73.4046 53.7114 73.4436 53.6614 73.4826C53.7004 73.4536 53.7414 73.4286 53.7864 73.4096C53.7264 73.4346 53.6674 73.4596 53.6074 73.4856C53.6454 73.4696 53.6844 73.4596 53.7254 73.4536C53.6584 73.4626 53.5924 73.4716 53.5264 73.4806C53.5654 73.4766 53.6044 73.4766 53.6434 73.4806C53.5764 73.4716 53.5104 73.4626 53.4434 73.4546C53.4924 73.4606 53.5394 73.4746 53.5844 73.4926C53.5244 73.4676 53.4654 73.4426 53.4054 73.4166C53.4644 73.4426 53.5194 73.4766 53.5714 73.5156C53.5204 73.4766 53.4694 73.4366 53.4194 73.3976C53.4904 73.4536 53.5524 73.5186 53.6064 73.5896C53.5674 73.5386 53.5284 73.4886 53.4894 73.4376C53.5544 73.5226 53.6074 73.6156 53.6494 73.7136C53.6244 73.6536 53.5994 73.5936 53.5744 73.5346C53.6094 73.6196 53.6354 73.7076 53.6484 73.7986C53.6394 73.7326 53.6304 73.6656 53.6214 73.5996C53.6304 73.6646 53.6324 73.7296 53.6234 73.7946L53.6504 73.5956C53.6434 73.6386 53.6334 73.6806 53.6164 73.7206C53.6414 73.6616 53.6674 73.6016 53.6924 73.5416C53.6794 73.5726 53.6624 73.6016 53.6424 73.6286C53.6814 73.5786 53.7204 73.5276 53.7594 73.4766C53.7384 73.5046 53.7144 73.5286 53.6874 73.5496C53.7374 73.5106 53.7884 73.4716 53.8394 73.4326C53.8094 73.4556 53.7774 73.4736 53.7434 73.4886C53.8034 73.4636 53.8624 73.4376 53.9224 73.4126C53.8724 73.4336 53.8204 73.4466 53.7674 73.4546C53.8334 73.4446 53.9004 73.4356 53.9664 73.4276C53.9204 73.4336 53.8734 73.4346 53.8264 73.4346C53.6364 73.4316 53.4304 73.5196 53.2964 73.6546C53.1664 73.7846 53.0684 73.9976 53.0764 74.1846C53.0854 74.3786 53.1494 74.5796 53.2964 74.7146C53.4444 74.8506 53.6224 74.9316 53.8264 74.9346C53.9904 74.9366 54.1634 74.9206 54.3164 74.8606C54.5064 74.7876 54.6874 74.6986 54.8204 74.5376C54.9244 74.4116 54.9664 74.3496 55.0254 74.2086C55.0534 74.1426 55.0804 74.0826 55.0944 74.0116C55.1374 73.7796 55.1304 73.6176 55.0934 73.3856C55.0684 73.2336 55.0054 73.0966 54.9444 72.9566C54.9074 72.8696 54.8624 72.7876 54.8064 72.7106C54.7184 72.5876 54.6244 72.4576 54.5074 72.3596C54.3284 72.2096 54.1904 72.1256 53.9744 72.0426C53.9314 72.0256 53.8884 72.0146 53.8424 72.0076C53.6784 71.9826 53.5824 71.9736 53.4264 71.9946C53.2694 72.0156 53.1764 72.0476 53.0254 72.1166C52.9204 72.1646 52.8344 72.2406 52.7434 72.3116C52.6704 72.3796 52.6184 72.4606 52.5884 72.5536C52.5414 72.6426 52.5204 72.7396 52.5244 72.8426C52.5244 73.0266 52.6054 73.2466 52.7434 73.3726C52.8864 73.5036 53.0744 73.6016 53.2744 73.5926C53.3404 73.5836 53.4074 73.5746 53.4734 73.5656C53.6004 73.5296 53.7104 73.4656 53.8044 73.3726Z" fill="#231F20"/>
<path fill-rule="evenodd" clip-rule="evenodd" d="M48.1792 104.211C48.9292 101.345 53.4022 94.4074 55.5472 92.8734C57.2492 91.6554 58.8722 91.0644 60.8462 91.8834C62.8032 92.6964 64.7132 94.3374 66.0962 95.9024C67.5032 97.4914 69.4562 99.3394 69.8642 101.493C69.9632 102.018 59.0882 108.109 48.1792 104.211Z" fill="#231F20"/>
<path fill-rule="evenodd" clip-rule="evenodd" d="M37.5633 38.4215C36.1183 39.5925 45.2213 60.3685 59.6893 51.0555C63.8403 48.3835 69.4243 43.3955 69.3933 38.8165C69.3913 38.6365 45.4583 32.0265 37.5633 38.4215Z" fill="#231F20"/>
<path fill-rule="evenodd" clip-rule="evenodd" d="M25.383 47.7032C23.641 45.4122 22.176 42.9382 20.867 40.4072C20.404 39.4752 19.858 38.5852 19.469 37.6202C18.018 34.2552 16.837 30.7922 15.965 27.2542C15.792 26.4642 15.596 25.6782 15.402 24.8932C15.206 24.1082 15.07 23.3112 14.892 22.5282C14.46 20.5152 14.032 18.4512 14.349 16.3632C14.468 15.7122 14.854 15.7852 15.429 16.2812C16.058 16.7762 16.749 17.6812 16.957 18.7952C17.207 19.7772 17.227 20.7872 17.428 21.7752C17.614 22.7642 17.728 23.7682 17.95 24.7532C18.137 25.7462 18.282 26.7532 18.515 27.7432C18.722 28.7412 18.919 29.7462 19.182 30.7392C19.708 33.1552 20.867 35.4562 21.901 37.7392C23.112 40.2182 24.466 42.6332 26.031 44.9142C27.022 46.2952 28.041 47.6622 29.185 48.9222C29.594 49.4212 30.049 49.8782 30.506 50.3332C30.964 50.7852 31.401 51.2642 31.88 51.6942C32.859 52.5302 33.804 53.4102 34.876 54.1092L36.1 54.9432L37.388 55.7142C38.246 56.2162 39.099 56.6892 39.959 57.0972C40.338 57.2812 40.722 57.4172 41.104 57.5812C42.531 58.1512 42.969 58.3742 43.147 59.0492C43.188 59.2002 43.256 59.3572 43.268 59.5012C43.316 59.9762 42.547 60.2102 41.282 59.9002C39.408 59.4322 37.633 58.4732 36.049 57.4872L34.86 56.7412L33.655 55.9032L32.455 55.0472L31.326 54.0992C30.179 53.1892 29.182 52.1172 28.144 51.0902C27.194 49.9842 26.193 48.9192 25.342 47.7402L25.383 47.7032Z" fill="#231F20"/>
<path fill-rule="evenodd" clip-rule="evenodd" d="M75.7507 46.5762L76.9307 44.9462C77.3027 44.3862 77.6327 43.7982 77.9867 43.2232C78.7237 42.0912 79.2947 40.8592 79.9077 39.6482C80.3787 38.7752 80.6377 37.8052 81.0467 36.9022C82.3847 33.6692 83.4477 30.2932 84.1547 26.8342C84.3437 26.0742 84.4527 25.2942 84.5677 24.5192C84.6787 23.7432 84.8057 22.9702 84.8787 22.1962C84.9727 21.2002 85.0077 20.1982 85.1297 19.2062C85.1847 18.7092 85.2377 18.2122 85.3137 17.7162C85.3787 17.2202 85.4777 16.7262 85.6607 16.2362C85.8787 15.6242 86.2517 15.7222 86.7437 16.2872C87.2817 16.8532 87.8427 17.8942 87.8367 19.0892C87.7327 21.1952 87.3947 23.2802 86.9787 25.3502C86.7797 26.3872 86.4727 27.4052 86.1887 28.4242C85.9177 29.4472 85.5787 30.4542 85.2057 31.4512C84.7977 32.6582 84.3857 33.8772 83.9697 35.1062C83.5977 36.3502 83.1227 37.5702 82.6257 38.7682C82.1267 40.1032 81.4107 41.3512 80.7987 42.6382C80.4847 43.2772 80.0837 43.8752 79.7297 44.4942C79.3507 45.1002 79.0327 45.7412 78.6047 46.3172L77.0747 48.4682C76.5477 49.1712 75.9417 49.8172 75.3847 50.4952L74.7377 51.2562C74.5057 51.4962 74.2587 51.7222 74.0197 51.9552L72.5777 53.3432C72.1097 53.8192 71.5407 54.1812 71.0327 54.6082C70.5037 55.0122 70.0047 55.4532 69.4637 55.8342C68.5967 56.3892 67.7527 56.9652 66.9117 57.5502C66.0267 58.0572 65.1167 58.5252 64.2057 59.0082C63.8107 59.2382 63.4037 59.4142 62.9697 59.5582C61.3677 60.1172 60.8037 60.1392 60.3137 59.6752C60.2027 59.5702 60.0677 59.4722 59.9897 59.3552C59.7297 58.9592 60.2597 58.3892 61.3137 57.9072C64.4447 56.5042 67.5767 54.7982 70.2727 52.4312C70.8137 52.0452 71.2667 51.5512 71.7467 51.0892C72.2177 50.6182 72.7167 50.1732 73.1737 49.6842L74.4747 48.1472L75.1257 47.3772L75.7047 46.5472L75.7507 46.5762Z" fill="#231F20"/>
<path fill-rule="evenodd" clip-rule="evenodd" d="M27.8968 72.6164C27.0758 73.5914 26.2398 74.5594 25.5048 75.6064C25.1318 76.1244 24.7278 76.6244 24.3788 77.1604L23.3358 78.7734C22.8068 79.5474 22.4378 80.4124 21.9668 81.2194C20.3488 84.0884 18.9748 87.1214 17.9988 90.2874C17.7438 90.9794 17.5878 91.7004 17.4138 92.4154C17.2508 93.1324 17.0538 93.8404 16.9448 94.5624C16.7928 95.4874 16.6958 96.4214 16.5148 97.3404C16.4458 97.8034 16.3658 98.2634 16.2688 98.7234C16.1808 99.1844 16.0598 99.6414 15.8548 100.091C15.6088 100.653 15.2408 100.546 14.7758 99.9894C14.2638 99.4304 13.7518 98.4104 13.8148 97.2724C14.0348 95.2784 14.5018 93.3184 15.0798 91.3964C15.3538 90.4304 15.7428 89.4994 16.1138 88.5654C16.3048 88.1004 16.4838 87.6324 16.6908 87.1734L17.3568 85.8174C17.8728 84.7294 18.3938 83.6304 18.9188 82.5214C19.4018 81.3934 19.9958 80.3104 20.5828 79.2394C21.2118 78.0514 21.9998 76.9544 22.7038 75.8134C23.5008 74.7324 24.2498 73.6174 25.1028 72.5824L26.6788 70.6754L28.3568 68.8604C29.1828 67.9264 30.1438 67.1164 31.0258 66.2384C31.9538 65.4084 32.9068 64.6074 33.8378 63.7944C34.5938 63.2014 35.3228 62.5884 36.0478 61.9674C36.7928 61.3744 37.5588 60.8104 38.3238 60.2354C38.6578 59.9764 38.9868 59.7244 39.3548 59.5104C40.7008 58.6914 41.2118 58.5704 41.7818 58.9264C41.9118 59.0074 42.0618 59.0764 42.1638 59.1744C42.5048 59.5054 42.1428 60.1504 41.2538 60.8174C38.6168 62.7964 35.8458 64.8054 33.3048 67.1374C32.3308 67.9674 31.4568 68.9084 30.5148 69.7814C29.6638 70.7414 28.7368 71.6384 27.9418 72.6484L27.8968 72.6164Z" fill="#231F20"/>
<path fill-rule="evenodd" clip-rule="evenodd" d="M77.5497 71.7729C78.3877 72.9179 79.2997 74.0029 80.0517 75.2069L81.2257 76.9739C81.5987 77.5749 81.9427 78.1939 82.3027 78.8009L83.1077 80.1219C83.3537 80.5749 83.5987 81.0279 83.8277 81.4899C85.4407 84.7439 86.7927 88.1269 87.7277 91.6269L88.0717 92.7819L88.3567 93.9539C88.5397 94.7369 88.7597 95.5099 88.9347 96.2889C89.1207 97.2969 89.3647 98.3009 89.5217 99.3189C89.5737 99.8309 89.5877 100.348 89.5997 100.863C89.6177 101.377 89.6017 101.894 89.5017 102.412C89.3867 103.058 89.0007 102.984 88.4217 102.493C87.7967 102.001 87.0757 101.112 86.8947 100.012C86.6687 99.0429 86.5557 98.0589 86.3977 97.0799C86.2527 96.0989 85.9987 95.1369 85.8237 94.1559C85.4287 92.2049 84.9867 90.2409 84.4137 88.2929C83.7897 85.9309 82.5477 83.7019 81.3977 81.5029C80.7347 80.3079 80.0397 79.1259 79.3157 77.9629C78.5347 76.8369 77.8297 75.6529 76.9627 74.5859C76.4427 73.9209 75.9527 73.2279 75.4057 72.5829L73.7387 70.6669C72.8797 69.7159 71.9487 68.8249 71.0547 67.9029C70.0927 67.0529 69.1527 66.1769 68.1517 65.3899C67.3587 64.7939 66.5537 64.2309 65.7497 63.6779L63.2387 62.1699C62.8777 61.9389 62.4957 61.7589 62.1157 61.5499C60.7187 60.7659 60.3587 60.3769 60.3477 59.6809C60.3457 59.5229 60.3207 59.3519 60.3467 59.2099C60.4317 58.7279 61.1917 58.7389 62.3087 59.2449C65.6247 60.7309 68.8137 62.9399 71.6647 65.5229C72.7707 66.4319 73.7287 67.5059 74.7537 68.5059C75.7247 69.5589 76.6737 70.6369 77.5897 71.7349L77.5497 71.7729Z" fill="#231F20"/>
<path fill-rule="evenodd" clip-rule="evenodd" d="M59.139 23.2754L57.754 23.4054L56.364 23.4544L53.585 23.5494C51.733 23.5954 49.879 23.4734 48.032 23.4484C46.684 23.3664 45.336 23.2714 43.993 23.1504C42.805 23.0674 41.631 22.8654 40.46 22.6514C39.29 22.4344 38.114 22.2644 36.953 22.0104L33.5 21.1304C32.928 20.9764 32.346 20.8584 31.782 20.6764L30.096 20.1034L27.094 19.1214C26.101 18.7754 25.144 18.3344 24.173 17.9544C22.942 17.4234 21.644 17.0294 20.479 16.3474C19.281 15.7354 18.137 15.0174 17.008 14.3014C16.308 13.8434 16.586 13.6084 17.389 13.6154C18.187 13.6364 19.534 13.8204 20.878 14.4774C25.669 16.7634 30.662 18.6474 35.906 19.8934C37.452 20.3684 39.09 20.5654 40.728 20.8024C41.549 20.9034 42.365 21.0704 43.193 21.1194C44.021 21.1814 44.847 21.2434 45.67 21.3054C46.576 21.3614 47.478 21.4964 48.387 21.4924L51.113 21.5414C52.932 21.6294 54.748 21.4604 56.568 21.4014C57.69 21.3834 58.8 21.2124 59.916 21.1104C61.03 20.9854 62.151 20.9044 63.251 20.6894C64.924 20.4004 66.614 20.1674 68.261 19.7484C69.088 19.5554 69.919 19.3774 70.739 19.1654C71.548 18.9174 72.355 18.6694 73.16 18.4214C75.656 17.6264 77.975 16.5084 80.23 15.3204C80.722 15.0504 81.164 14.7284 81.651 14.4514C82.094 14.1834 82.484 13.9924 82.803 13.8324C83.11 13.6574 83.362 13.5224 83.6 13.4524C84.084 13.3234 84.438 13.3384 84.804 13.4454C84.97 13.4934 85.163 13.5174 85.29 13.5804C85.5061 13.6884 85.488 13.9334 85.273 14.3204C85.057 14.7034 84.656 15.2584 83.997 15.7824C79.998 18.6504 75.12 20.2564 70.243 21.4924L67.499 22.1204C66.586 22.3374 65.651 22.4444 64.728 22.6104C63.8 22.7484 62.88 22.9414 61.946 23.0324L59.149 23.3264L59.139 23.2754Z" fill="#231F20"/>
<path fill-rule="evenodd" clip-rule="evenodd" d="M43.212 2.27843C45.115 2.01443 47.038 1.99043 48.954 1.91943C50.868 1.78843 52.787 1.95943 54.701 1.98743C56.099 2.00143 57.49 2.16343 58.881 2.27743C63.774 2.84643 68.596 3.91543 73.254 5.45543C75.32 6.14043 77.385 6.86743 79.386 7.69443L81.312 8.50743L83.184 9.45243C83.795 9.81843 84.392 10.1304 84.995 10.5714C85.602 11.0584 86.097 11.6284 86.478 12.2904C86.712 12.7104 86.698 12.9784 86.589 12.9994C86.475 13.0284 86.266 12.8784 85.927 12.7044C85.591 12.5274 85.117 12.3054 84.565 12.1334C84.275 12.0344 84.03 12.0054 83.676 11.8964C83.342 11.7784 83.001 11.6374 82.661 11.4664C80.194 10.3254 77.703 9.18743 75.13 8.21343C72.541 7.28243 69.916 6.40943 67.222 5.69743C66.415 5.49043 65.595 5.29643 64.768 5.10943C63.941 4.92643 63.09 4.83343 62.245 4.69943C61.398 4.58643 60.552 4.42943 59.697 4.35743C58.843 4.28343 57.989 4.20943 57.139 4.13543C55.274 3.89943 53.391 3.95043 51.513 3.86243C49.634 3.81743 47.756 3.97543 45.874 4.02243C44.718 4.09643 43.57 4.26343 42.416 4.38043C41.266 4.52143 40.105 4.59843 38.972 4.85643C37.253 5.20943 35.505 5.46843 33.798 5.89343C32.104 6.36743 30.412 6.84143 28.731 7.31243C27.449 7.75743 26.207 8.28143 24.965 8.78043C23.728 9.29543 22.477 9.75843 21.292 10.3954C20.765 10.6594 20.247 10.9184 19.716 11.1854C17.725 12.1274 17.029 12.2934 16.357 12.0084C16.204 11.9434 16.019 11.8934 15.906 11.8104C15.525 11.5274 16.201 10.8424 17.65 10.0494C18.722 9.46243 19.822 8.88343 20.941 8.31343L21.786 7.89043L22.663 7.53143C23.253 7.29743 23.844 7.06143 24.437 6.82443C25.629 6.36143 26.827 5.88743 28.045 5.45143C29.29 5.09443 30.539 4.73643 31.789 4.37643C32.725 4.13443 33.639 3.80443 34.596 3.64443L37.45 3.08443C38.405 2.91743 39.347 2.67443 40.312 2.57243L43.201 2.22843L43.212 2.27843Z" fill="#231F20"/>
<path fill-rule="evenodd" clip-rule="evenodd" d="M31.2795 96.4854C32.2155 96.2324 33.1555 96.0074 34.0945 95.7904C34.4365 95.7064 34.7645 95.5774 35.1095 95.5104C36.3235 95.2594 37.5505 95.0794 38.7665 94.8794C39.3055 94.7884 39.8455 94.6854 40.3735 94.5604C41.0555 94.4294 41.7145 94.1064 42.4845 94.4594C42.7215 94.5544 42.7055 94.6804 42.5695 94.9774C42.4695 95.1894 42.3705 95.4014 42.2915 95.5704C42.1715 95.7774 42.0175 95.9264 41.8365 96.0204C40.5055 96.4164 39.1575 96.7144 37.7315 96.7874C36.8815 96.8484 36.0575 97.1554 35.2225 97.3574C34.3045 97.5824 33.3865 97.8094 32.4735 98.0624C31.9145 98.2214 31.3535 98.3824 30.8005 98.5624C29.9655 98.8424 29.1195 99.1144 28.3275 99.4854C27.7115 99.7724 27.1645 100.175 26.6005 100.538C26.4775 100.621 26.3665 100.719 26.2385 100.794C25.7465 101.028 25.4715 100.877 25.1805 100.581C25.1115 100.508 25.0365 100.443 24.9795 100.37C24.7925 100.131 24.8645 99.7784 25.1305 99.3784C25.5665 98.8624 26.1335 98.5514 26.6965 98.2244C27.2645 97.8974 27.8735 97.6444 28.4825 97.3924C29.3935 97.0304 30.3305 96.7314 31.2625 96.4424L31.2795 96.4854Z" fill="#231F20"/>
<path fill-rule="evenodd" clip-rule="evenodd" d="M75.7589 110.824C70.8749 112.433 65.7279 113.497 60.6139 114.024C58.7419 114.221 56.8659 114.404 54.9859 114.454C48.3519 114.613 41.7199 113.86 35.3059 112.296C32.4589 111.603 29.6339 110.762 26.8949 109.792C25.1029 109.177 23.3749 108.366 21.7299 107.447C20.1059 106.491 18.5099 105.384 17.3389 103.797C16.9759 103.304 16.9069 103.024 16.9879 102.992C17.0829 102.944 17.3339 103.124 17.7799 103.355C18.2129 103.598 18.8669 103.871 19.6519 104.151C20.4169 104.458 21.2719 104.857 22.1889 105.317C23.7789 106.179 25.4419 107.007 27.0979 107.601C28.8409 108.225 30.6049 108.787 32.3879 109.292C35.9529 110.302 39.5789 111.152 43.2829 111.733C47.7149 112.444 52.4159 112.47 56.9919 112.189C62.0239 111.871 67.0579 111.079 71.9109 109.704C74.9079 108.835 77.8899 107.854 80.7559 106.657C81.8389 106.2 82.9089 105.713 83.9339 105.166C84.9469 104.615 85.9639 104.017 86.7369 103.275C87.1349 102.917 87.4339 102.489 87.5289 102.133C87.6229 101.781 87.5159 101.471 87.1879 101.135C86.5419 100.461 85.3929 100.02 84.3379 99.6229C80.9279 98.4519 77.3609 97.8439 73.8069 97.2369C73.0199 97.1169 72.2489 96.9999 71.4559 96.8799C68.5299 96.3509 67.6379 95.9279 67.0709 95.3659C66.9439 95.2319 66.7679 95.0949 66.6989 94.9759C66.4629 94.5889 67.7229 94.4159 69.9479 94.4939C71.5989 94.5549 73.2359 94.8539 74.9009 95.0989C76.5619 95.3699 78.2359 95.6849 79.9159 96.0739C81.5979 96.4639 83.2829 96.9059 84.9879 97.5029C85.8489 97.8309 86.6899 98.1269 87.6109 98.6789C88.0679 98.9629 88.5449 99.2949 88.9969 99.8229C89.2169 100.076 89.4349 100.446 89.5859 100.809C89.7259 101.22 89.8199 101.641 89.7769 102.076C89.7489 102.714 89.5069 103.266 89.2639 103.674C89.1419 103.91 89.0039 104.06 88.8679 104.241C88.7319 104.425 88.5919 104.577 88.4489 104.714C87.8819 105.303 87.2959 105.72 86.7079 106.122C85.5299 106.897 84.3309 107.505 83.1229 108.064C80.7069 109.169 78.2529 110.056 75.7819 110.875L75.7589 110.824Z" fill="#231F20"/>
<path fill-rule="evenodd" clip-rule="evenodd" d="M70.567 32.1246C70.799 32.2056 71.033 32.2886 71.272 32.3856C71.592 32.5196 72.026 32.7186 72.347 32.9456C72.684 33.1776 72.94 33.4626 73.097 33.8116C73.278 34.1716 73.175 34.5346 73.134 34.9196L72.705 36.1036C72.607 36.3706 72.484 36.6226 72.375 36.8816C72.159 37.4026 71.917 37.9076 71.66 38.4026C71.162 39.4026 70.601 40.3636 70.005 41.2986C68.811 43.1666 67.459 44.9226 65.961 46.5516C64.638 47.9846 63.237 49.3646 61.643 50.5296C60.246 51.5616 58.723 52.4596 57.055 53.0916C56.227 53.4036 55.359 53.5866 54.515 53.8336C53.652 54.0096 52.761 54.0626 51.889 54.1766C48.331 54.3076 44.877 53.1096 41.987 51.2726C39.409 49.6326 37.166 47.5386 35.216 45.2786C32.709 42.3756 30.562 39.1246 29.114 35.5766C28.657 34.4726 29.075 34.4776 29.843 35.2106C30.608 35.9486 31.743 37.3796 32.902 39.1516C34.911 42.3276 37.358 45.2156 40.16 47.6196C42.966 49.9996 46.27 51.7986 49.87 52.2696C52.029 52.5386 54.264 52.1006 56.368 51.3326C58.43 50.4726 60.347 49.1396 62.063 47.6116C65.827 44.2426 68.975 39.9936 70.864 35.2946L71.011 34.8996C71.034 34.8186 71.089 34.7416 71.086 34.6546C71.067 34.5696 70.995 34.5106 70.927 34.4626C70.857 34.4136 70.78 34.3736 70.702 34.3346L70.579 34.2786L70.344 34.1866C69.693 33.9426 68.99 33.7456 68.284 33.5676C66.865 33.2156 65.41 32.9446 63.951 32.7126C59.178 31.9706 54.304 31.5566 49.5 31.5626C45.767 31.5816 42.104 31.9076 38.531 32.6106C37.745 32.7686 36.988 32.9616 36.213 33.1606C33.352 33.9246 32.545 34.2866 31.715 34.0826C31.531 34.0446 31.3 34.0326 31.164 33.9696C30.694 33.7946 31.631 32.7276 33.831 31.8616C37.076 30.5996 40.572 30.0726 44.081 29.7746C47.599 29.4956 51.166 29.5086 54.725 29.6976C57.367 29.8396 60.008 30.0886 62.644 30.4496C65.288 30.8326 67.89 31.2406 70.576 32.0746L70.567 32.1246Z" fill="#231F20"/>
<path fill-rule="evenodd" clip-rule="evenodd" d="M70.0517 101.012C70.0787 101.002 70.0917 100.978 70.0867 100.952C70.1247 101.055 69.9917 100.493 69.8607 100.132C69.7257 99.7399 69.5517 99.3509 69.3637 98.9639C68.9727 98.1919 68.4887 97.4369 67.9587 96.6959C67.4277 95.9529 66.8507 95.2229 66.2607 94.4819L65.3697 93.3549C65.0827 92.9869 64.8017 92.6349 64.5037 92.2829C63.5777 91.1899 62.5307 90.2089 61.4607 89.2829C60.5117 88.4709 59.5047 87.7329 58.4327 87.1479C57.3767 86.5539 56.2827 86.2209 55.1397 86.2529C54.0017 86.2809 52.8507 86.6729 51.7557 87.2469C50.6357 87.8189 49.6567 88.5329 48.6837 89.3819C46.9717 90.8689 45.4057 92.5759 43.9367 94.3019C42.0647 96.5369 40.3907 98.9549 38.9607 101.395C38.5577 102.165 38.3437 102.023 38.3097 101.155C38.2867 100.716 38.3617 100.116 38.5187 99.4069C38.6997 98.7109 39.0427 97.9599 39.5097 97.2149C40.3427 95.8979 41.2607 94.6599 42.2237 93.4579C43.1907 92.2589 44.1907 91.0879 45.2967 90.0069C46.3977 88.9189 47.5337 87.8679 48.8297 86.9099C49.5067 86.4229 50.1947 86.0049 50.9177 85.6449C51.6437 85.2799 52.4197 84.9629 53.2477 84.7579C54.2327 84.5039 55.3067 84.4249 56.3517 84.5709C57.3937 84.7129 58.3967 85.1019 59.2717 85.5579C61.0307 86.4719 62.5817 87.6789 63.9687 89.0029C65.5157 90.4439 66.7897 92.1469 68.0547 93.7129C69.3307 95.3189 70.6537 96.9949 71.4967 99.0259C71.6307 99.3269 71.7277 99.6499 71.8367 99.9649L71.9677 100.471C72.0297 100.688 72.0587 100.931 72.1027 101.16C72.1197 101.49 72.0477 101.833 71.8097 102.087C71.5837 102.33 71.2407 102.556 70.9857 102.714C70.5447 102.978 70.1057 103.203 69.6587 103.41C68.7687 103.825 67.8627 104.175 66.9457 104.488C63.2557 105.732 59.3677 106.301 55.5287 106.383C52.5437 106.429 49.5917 106.254 46.6717 105.66C46.0307 105.524 45.3967 105.414 44.7607 105.227C42.4207 104.483 41.7777 103.971 41.4687 103.357C41.3987 103.215 41.2947 103.061 41.2717 102.941C41.1957 102.529 42.2047 102.63 43.8797 102.996C45.1257 103.262 46.3737 103.53 47.6387 103.764C48.9067 103.984 50.1937 104.151 51.4917 104.266C54.0907 104.478 56.7417 104.455 59.3697 104.137C61.3207 103.905 63.2597 103.52 65.1457 102.97C66.0887 102.696 67.0187 102.377 67.9157 102.009C68.3607 101.821 68.8047 101.629 69.2217 101.415C69.4357 101.311 69.6327 101.199 69.8307 101.089L70.0087 100.982L70.0517 101.012Z" fill="#231F20"/>
<path fill-rule="evenodd" clip-rule="evenodd" d="M53.0499 61.5024C52.7639 61.1844 52.5969 60.7734 52.5399 60.4554C52.4619 60.1334 52.4309 59.7774 52.4729 59.4184C52.4949 59.1544 52.5489 58.8804 52.6669 58.6254C53.1599 57.7134 54.2049 57.3754 55.0179 57.5304C55.3919 57.5704 55.7409 57.6924 56.0789 57.8354C56.4979 58.0304 56.9279 58.3214 57.0569 58.7924C57.1059 58.9324 56.8709 59.0474 56.5909 59.1264C56.3029 59.2084 56.0059 59.2594 55.8549 59.2034C55.4289 58.8494 54.9309 58.6854 54.3809 58.6834C54.0349 58.6974 53.8169 58.9744 53.7099 59.2644C53.5659 59.5724 53.6199 60.1154 53.7659 60.4714C53.8659 60.6774 54.0089 60.8564 54.2459 60.9334C54.5929 61.0584 55.0819 61.0104 55.4459 60.7884C55.7319 60.6254 55.9019 60.2904 55.8669 60.1424C55.8519 60.1104 55.8219 60.0964 55.8269 60.0784C55.7969 60.0364 55.8759 59.8954 56.0519 59.6644L56.1619 59.5024C56.2639 59.3474 56.5439 59.2744 56.8439 59.5694C57.0509 59.8144 57.1039 60.2104 57.0299 60.5274C56.9619 60.8594 56.7959 61.1164 56.6169 61.3144C56.2489 61.7184 55.7999 61.9394 55.3219 62.0764C54.6399 62.2654 53.6729 62.2064 53.0299 61.5234L53.0499 61.5024Z" fill="#231F20"/>
<path fill-rule="evenodd" clip-rule="evenodd" d="M60.1571 65.7829C60.4911 65.9589 60.7531 66.2509 60.8891 66.4869C61.0441 66.7219 61.1731 66.9989 61.2461 67.3029C61.3051 67.5219 61.3481 67.7599 61.3261 68.0049C61.1941 68.8989 60.4401 69.4729 59.7501 69.5799C59.4401 69.6539 59.1291 69.6619 58.8191 69.6519C58.4311 69.6259 57.9971 69.5289 57.7721 69.1759C57.6961 69.0729 57.8731 68.8809 58.0921 68.6999C58.3151 68.5139 58.5491 68.3379 58.6691 68.3249C59.0561 68.4459 59.4091 68.4419 59.8081 68.3469C60.0571 68.2699 60.1211 68.0279 60.1281 67.8119C60.1631 67.5749 59.9791 67.1779 59.7911 66.9629C59.6741 66.8449 59.5391 66.7519 59.3531 66.7559C59.0791 66.7519 58.7241 66.9109 58.5221 67.1779C58.3581 67.3769 58.3531 67.6809 58.4301 67.7349C58.4511 67.7439 58.4791 67.7319 58.4741 67.7369C58.4851 67.7139 58.4351 67.8739 58.3431 68.1409L58.2891 68.3279C58.2411 68.5069 58.0281 68.6819 57.6761 68.5379C57.4191 68.4049 57.2471 68.0819 57.2051 67.7929C57.1561 67.4909 57.2131 67.2259 57.2981 67.0079C57.4721 66.5619 57.7701 66.2499 58.1151 65.9949C58.6071 65.6369 59.4221 65.3869 60.1691 65.7559L60.1571 65.7829Z" fill="#231F20"/>
<path fill-rule="evenodd" clip-rule="evenodd" d="M54.2877 75.5303C53.9297 75.6523 53.5377 75.6403 53.2727 75.5763C52.9957 75.5273 52.7057 75.4303 52.4357 75.2743C52.2357 75.1653 52.0337 75.0323 51.8707 74.8483C51.3137 74.1363 51.4177 73.1943 51.8157 72.6203C51.9747 72.3443 52.1827 72.1133 52.4037 71.8963C52.6897 71.6323 53.0597 71.3843 53.4707 71.4653C53.5977 71.4803 53.6137 71.7413 53.5957 72.0243C53.5767 72.3143 53.5427 72.6043 53.4697 72.7013C53.1157 72.8983 52.8747 73.1573 52.6687 73.5113C52.5527 73.7453 52.6837 73.9583 52.8367 74.1123C52.9847 74.3013 53.3987 74.4413 53.6837 74.4523C53.8507 74.4493 54.0107 74.4153 54.1357 74.2783C54.3277 74.0813 54.4567 73.7143 54.4017 73.3843C54.3707 73.1283 54.1547 72.9153 54.0617 72.9343C54.0407 72.9433 54.0297 72.9723 54.0307 72.9653C54.0387 72.9883 53.9577 72.8423 53.8277 72.5913L53.7287 72.4233C53.6317 72.2663 53.6517 71.9903 53.9987 71.8343C54.2727 71.7393 54.6247 71.8373 54.8637 72.0063C55.1167 72.1783 55.2687 72.4023 55.3687 72.6133C55.5717 73.0483 55.5927 73.4783 55.5397 73.9033C55.4617 74.5083 55.0807 75.2703 54.2997 75.5573L54.2877 75.5303Z" fill="#231F20"/>
<path fill-rule="evenodd" clip-rule="evenodd" d="M95.6107 1.56158C96.4267 1.07058 97.4227 1.22858 97.8357 1.91558C99.8817 5.31558 91.3627 4.11658 95.6107 1.56158Z" stroke="#231F20" stroke-width="1.2"/>
<path fill-rule="evenodd" clip-rule="evenodd" d="M1.55333 30.0073C2.23633 29.3433 3.24133 29.2693 3.80033 29.8433C6.56933 32.6863 -1.99867 33.4653 1.55333 30.0073Z" stroke="#231F20" stroke-width="1.2"/>
<path fill-rule="evenodd" clip-rule="evenodd" d="M101.221 10.7501C102.037 10.2591 103.033 10.4171 103.446 11.1041C105.492 14.5041 96.9725 13.3051 101.221 10.7501Z" fill="#231F20"/>
</svg>
